# xmcd CD database file
#
# Track frame offsets:
#	150
#	16715
#	31893
#	44193
#	56998
#	72243
#	83335
#	95140
#	110340
#	124465
#
# Disc length: 1812 seconds
#
# Revision: 2
# Processed by: cddbd v1.4PL0 Copyright (c) Steve Scherf et al.
# Submitted via: CDex 1.50
#
DISCID=8707120a
DTITLE=Assorted - 30 Years of #1 Hits Vol.18
DYEAR=1994
DGENRE=Country
TTITLE0=Next To You, Next To Me
TTITLE1=It's Such A Small World
TTITLE2=A Better Love Next Time
TTITLE3=Give Me One More Chance
TTITLE4=I'd Be Better Off (In A Pine Box)
TTITLE5=Set 'Em Up Joe
TTITLE6=I Don't Want To Spoil The Party
TTITLE7=Living In The Promiseland
TTITLE8=Natural High
TTITLE9=Don't We All Have The Right
EXTD=YEAR: 1994
EXTT0=Shenandoah
EXTT1=Rodney Crowell (Duet With Rosanne Cash)
EXTT2=Merle Haggard
EXTT3=Exile
EXTT4=Doug Stone
EXTT5=Vern Gosdin
EXTT6=Rosanne Cash
EXTT7=Willie Nelson
EXTT8=Merle Haggard
EXTT9=Ricky Van Shelton
PLAYORDER=
